<svg xmlns="http://www.w3.org/2000/svg" version="1.1" xmlns:xlink="http://www.w3.org/1999/xlink"
    width="512" height="512" x="0" y="0" viewBox="0 0 32 32"
    style="enable-background:new 0 0 512 512" xml:space="preserve" class=""><g><path d="M28.71 27.29 21.41 20H24c.55 0 1-.45 1-1s-.45-1-1-1h-5.07a.95.95 0 0 0-.54.21c-.05.04-.1.09-.15.14-.15.17-.24.4-.24.65v5c0 .55.45 1 1 1s1-.45 1-1v-2.59l7.29 7.29c.2.2.45.3.71.3s.51-.1.71-.29c.39-.39.39-1.03 0-1.42zM13 7c-.55 0-1 .45-1 1v2.59l-7.29-7.3A.996.996 0 1 0 3.3 4.7l7.29 7.3H8c-.55 0-1 .45-1 1s.45 1 1 1h5.07c.2-.01.39-.09.54-.21.05-.04.1-.09.15-.14.15-.17.24-.4.24-.65V8c0-.55-.45-1-1-1z" fill="#ffffff" opacity="1"  class=""></path></g></svg>