<?xml version="1.0" encoding="UTF-8"?>
<svg class="" enable-background="new 0 0 512 512" version="1.1" viewBox="0 0 512 512"
    xml:space="preserve" xmlns="http://www.w3.org/2000/svg"><path d="M420.12 0H91.881C49.189 0 14.457 34.732 14.457 77.424v228.423c0 42.692 34.732 77.425 77.424 77.425h53.824V496a16 16 0 0 0 28.56 9.912l96.785-122.64h149.07c42.692 0 77.424-34.732 77.424-77.425V77.424C497.543 34.732 462.812 0 420.12 0zm45.423 305.848c0 25.047-20.377 45.425-45.424 45.425H263.295a15.999 15.999 0 0 0-12.56 6.088l-73.03 92.538v-82.626c0-8.837-7.164-16-16-16H91.881c-25.047 0-45.424-20.378-45.424-45.425V77.424C46.457 52.377 66.834 32 91.881 32H420.12c25.047 0 45.424 20.377 45.424 45.424v228.424z" fill="#fff" /></svg>
