<svg xmlns="http://www.w3.org/2000/svg" version="1.1" xmlns:xlink="http://www.w3.org/1999/xlink"
    width="512" height="512" x="0" y="0" viewBox="0 0 32 32"
    style="enable-background:new 0 0 512 512" xml:space="preserve" class=""><g><path d="M4 31h14a3 3 0 0 0 3-3v-6h6a3 3 0 0 0 3-3V4a3 3 0 0 0-3-3H13a3 3 0 0 0-3 3v6H4a3 3 0 0 0-3 3v15a3 3 0 0 0 3 3zm8-27a1 1 0 0 1 1-1h14a1 1 0 0 1 1 1v15a1 1 0 0 1-1 1h-6v-7a3 3 0 0 0-3-3h-6zm-9 9a1 1 0 0 1 1-1h14a1 1 0 0 1 1 1v15a1 1 0 0 1-1 1H4a1 1 0 0 1-1-1z" fill="#ffffff" opacity="1"  class=""></path></g></svg>