<svg xmlns="http://www.w3.org/2000/svg" version="1.1" xmlns:xlink="http://www.w3.org/1999/xlink"
    width="512" height="512" x="0" y="0" viewBox="0 0 32 32"
    style="enable-background:new 0 0 512 512" xml:space="preserve" class=""><g transform="matrix(-1,-1.2246467991473532e-16,1.2246467991473532e-16,-1,32.00000190734863,31.962577819824222)"><g fill="#9E9E9E" fill-rule="evenodd" clip-rule="evenodd"><path d="M20.94 11.94a1.5 1.5 0 0 1 2.12 0l6 6a1.5 1.5 0 0 1 0 2.12l-6 6a1.5 1.5 0 0 1-2.12-2.12L25.878 19l-4.94-4.94a1.5 1.5 0 0 1 0-2.12z" fill="#9E9E9E" opacity="1"  class=""></path><path
    d="M4 5.5A1.5 1.5 0 0 1 5.5 7 10.5 10.5 0 0 0 16 17.5h12a1.5 1.5 0 0 1 0 3H16A13.5 13.5 0 0 1 2.5 7 1.5 1.5 0 0 1 4 5.5z"
    fill="#9E9E9E" opacity="1" class=""></path></g></g></svg>