<svg xmlns="http://www.w3.org/2000/svg" version="1.1" xmlns:xlink="http://www.w3.org/1999/xlink"
    width="512" height="512" x="0" y="0" viewBox="0 0 24 24"
    style="enable-background:new 0 0 512 512" xml:space="preserve" class=""><g transform="matrix(1.1900000000000002,0,0,-1.1900000000000002,-2.2800952196121234,26.28726605415345)"><path d="M15.5 22h-7a.5.5 0 0 1-.5-.5V12H3.5a.5.5 0 0 1-.363-.844l8.5-9a.517.517 0 0 1 .727 0l8.5 9A.5.5 0 0 1 20.5 12H16v9.5a.5.5 0 0 1-.5.5zM9 21h6v-9.5a.5.5 0 0 1 .5-.5h3.84L12 3.229 4.66 11H8.5a.5.5 0 0 1 .5.5z" fill="#ffffff" opacity="1"  class=""></path></g></svg>