<svg xmlns="http://www.w3.org/2000/svg" version="1.1" xmlns:xlink="http://www.w3.org/1999/xlink"
    width="512" height="512" x="0" y="0" viewBox="0 0 24 24"
    style="enable-background:new 0 0 512 512" xml:space="preserve" class=""><g><path fill="#ffffff" fill-rule="evenodd" d="M10.167 2.25h3.666c1.232 0 2.203 0 2.984.064.796.065 1.462.2 2.067.508a5.25 5.25 0 0 1 2.294 2.295c.308.604.443 1.27.508 2.066.064.781.064 1.752.064 2.984v3.666c0 1.232 0 2.203-.064 2.984-.037.449-.096.856-.195 1.235l.062.08-.108.083a4.04 4.04 0 0 1-.267.668 5.251 5.251 0 0 1-2.295 2.295c-.604.308-1.27.443-2.066.508-.781.064-1.752.064-2.984.064h-3.666c-1.232 0-2.203 0-2.984-.064-.796-.065-1.462-.2-2.066-.508a5.25 5.25 0 0 1-2.295-2.295c-.308-.604-.443-1.27-.508-2.066-.064-.781-.064-1.752-.064-2.984v-3.666c0-1.232 0-2.203.064-2.984.065-.796.2-1.462.508-2.066a5.25 5.25 0 0 1 2.295-2.295c.604-.308 1.27-.443 2.066-.508.781-.064 1.752-.064 2.984-.064zM20.25 13.8c0 1.108 0 1.94-.039 2.608l-.32-.412-.02-.026c-.372-.476-.679-.871-.955-1.17-.286-.308-.59-.57-.972-.732a2.75 2.75 0 0 0-1.834-.105c-.399.115-.73.342-1.05.616-.265.227-.562.523-.908.875l-1.859-2.236-.02-.024c-.372-.447-.68-.818-.957-1.099-.286-.29-.588-.537-.963-.686a2.75 2.75 0 0 0-1.793-.082c-.387.114-.71.331-1.022.595-.3.253-.642.595-1.053 1.006l-.022.022-2.702 2.702A93.37 93.37 0 0 1 3.75 13.8v-3.6c0-1.272 0-2.182.059-2.895.057-.704.167-1.15.35-1.507a3.75 3.75 0 0 1 1.639-1.64c.357-.182.803-.292 1.507-.35.713-.057 1.623-.058 2.895-.058h3.6c1.272 0 2.182 0 2.894.059.704.057 1.15.167 1.508.35a3.75 3.75 0 0 1 1.64 1.639c.182.357.292.803.35 1.507.057.713.058 1.623.058 2.895zM4.159 18.202a2.714 2.714 0 0 1-.218-.608l.09-.09 3.492-3.493c.44-.44.736-.735.983-.943.24-.203.376-.272.478-.302a1.25 1.25 0 0 1 .815.037c.099.04.228.121.449.345.226.23.494.552.892 1.03l2.388 2.873.008.01 2.716 3.158c-.64.03-1.429.031-2.452.031h-3.6c-1.272 0-2.182 0-2.895-.059-.704-.057-1.15-.167-1.507-.35a3.75 3.75 0 0 1-1.64-1.639zm14.043 1.64c-.068.034-.139.066-.214.096l-.367-.427-2.498-2.906c.399-.405.678-.686.913-.887.249-.213.39-.285.493-.315.275-.08.57-.063.834.048.099.042.23.13.453.369.227.245.495.589.89 1.097l1.081 1.388a3.75 3.75 0 0 1-1.585 1.536zM14.75 9a1.25 1.25 0 1 1 2.5 0 1.25 1.25 0 0 1-2.5 0zM16 6.25a2.75 2.75 0 1 0 0 5.5 2.75 2.75 0 0 0 0-5.5z" clip-rule="evenodd" opacity="1" class=""></path></g></svg>