<svg xmlns="http://www.w3.org/2000/svg" version="1.1" xmlns:xlink="http://www.w3.org/1999/xlink"
    width="512" height="512" x="0" y="0" viewBox="0 0 32 32"
    style="enable-background:new 0 0 512 512" xml:space="preserve" class=""><g><path d="M3.01 28.99a3.441 3.441 0 0 0 2.438 1.008c.812 0 1.626-.284 2.277-.858L21.36 17.127c.354.05.708.084 1.06.084a7.537 7.537 0 0 0 4.593-1.567l.228.228a.997.997 0 0 0 1.414 0 1 1 0 0 0 0-1.414l-.228-.228c2.285-2.981 2.072-7.275-.655-10.001A7.555 7.555 0 0 0 22.392 2c-1.695 0-3.301.557-4.622 1.573l-.247-.247A1 1 0 1 0 16.11 4.74l.244.244a7.534 7.534 0 0 0-1.475 5.65L2.86 24.274a3.454 3.454 0 0 0 .15 4.715zM19.201 5.004A5.56 5.56 0 0 1 22.392 4a5.57 5.57 0 0 1 3.966 1.643c1.944 1.944 2.15 4.968.635 7.153zm6.378 9.207a5.56 5.56 0 0 1-4.01.933l-4.714-4.713a5.547 5.547 0 0 1 .933-4.011zM4.424 27.576a1.449 1.449 0 0 1-.063-1.978l11.631-13.203 3.613 3.613-13.202 11.63a1.448 1.448 0 0 1-1.979-.062z" fill="#ffffff" opacity="1"  class=""></path></g></svg>