<svg xmlns="http://www.w3.org/2000/svg" version="1.1" xmlns:xlink="http://www.w3.org/1999/xlink"
    width="512" height="512" x="0" y="0" viewBox="0 0 512 512"
    style="enable-background:new 0 0 512 512" xml:space="preserve" class=""><g><path d="M485.856 209.984c-10.096-6.016-13.52-18.784-7.776-29.056 9.296-16.64 9.152-36.416-.368-52.912-9.536-16.512-26.592-26.528-45.664-26.8-11.76-.16-21.088-9.504-21.264-21.264-.416-29.152-24.48-52.88-53.632-52.88-9.04 0-18.048 2.368-26.08 6.864-10.064 5.6-23.248 1.984-29.056-7.776C292.256 9.776 275.056 0 256 0c-19.056 0-36.256 9.776-46.016 26.144-5.808 9.76-19.008 13.392-29.056 7.776-8.032-4.48-17.04-6.864-26.08-6.864-29.152 0-53.216 23.728-53.632 52.896-.16 11.76-9.504 21.088-21.264 21.264-19.072.272-36.128 10.288-45.664 26.784-9.52 16.512-9.648 36.288-.368 52.928 5.744 10.272 2.32 23.04-7.776 29.056C9.776 219.744 0 236.944 0 256c0 19.056 9.776 36.256 26.144 46.016 10.096 6.016 13.52 18.784 7.776 29.056-9.28 16.64-9.152 36.416.368 52.928 9.536 16.512 26.592 26.528 45.664 26.8 11.76.16 21.088 9.504 21.264 21.264.416 29.168 24.48 52.88 53.632 52.88 9.04 0 18.064-2.368 26.08-6.864 10.048-5.616 23.248-1.984 29.056 7.776C219.744 502.224 236.944 512 256 512c19.056 0 36.256-9.776 46.016-26.144 5.792-9.712 19.056-13.36 29.056-7.776 8.032 4.48 17.04 6.864 26.08 6.864 29.152 0 53.216-23.728 53.632-52.896.16-11.76 9.504-21.088 21.264-21.264 19.056-.272 36.128-10.288 45.664-26.8 9.52-16.496 9.664-36.288.368-52.912-5.744-10.272-2.32-23.04 7.776-29.056C502.224 292.256 512 275.056 512 256c0-19.056-9.776-36.256-26.144-46.016zm-16.384 64.544c-25.088 14.976-33.568 46.656-19.328 72.16 3.792 6.8 3.744 14.56-.144 21.312s-10.608 10.688-18.384 10.8c-29.216.4-52.416 23.6-52.816 52.816-.192 13.184-11.376 21.328-21.632 21.328-3.632 0-7.152-.944-10.48-2.8-7.984-4.448-17.008-6.816-26.096-6.816-18.784 0-36.432 10.016-46.048 26.144-7.984 13.392-29.072 13.392-37.056 0-9.616-16.128-27.264-26.144-46.048-26.144a53.507 53.507 0 0 0-26.096 6.816c-3.312 1.856-6.848 2.8-10.48 2.8-10.256 0-21.44-8.16-21.632-21.328-.432-29.232-23.616-52.416-52.832-52.832-7.792-.112-14.496-4.048-18.4-10.784-3.888-6.736-3.952-14.512-.144-21.312 14.24-25.504 5.76-57.184-19.328-72.16C35.84 270.544 32 263.792 32 256s3.84-14.544 10.528-18.528c25.088-14.976 33.568-46.656 19.328-72.16-3.792-6.8-3.744-14.56.144-21.312s10.608-10.688 18.384-10.8c29.232-.4 52.416-23.584 52.832-52.8.192-13.184 11.376-21.328 21.632-21.328 3.632 0 7.152.944 10.48 2.8 7.984 4.448 17.008 6.816 26.096 6.816 18.784 0 36.432-10.016 46.048-26.144 7.984-13.392 29.072-13.392 37.056 0 9.616 16.128 27.264 26.144 46.048 26.144a53.507 53.507 0 0 0 26.096-6.816c3.328-1.856 6.848-2.8 10.48-2.8 10.256 0 21.44 8.16 21.632 21.328.416 29.216 23.6 52.4 52.816 52.816 7.792.112 14.496 4.048 18.4 10.784 3.888 6.736 3.952 14.512.144 21.312-14.24 25.504-5.76 57.184 19.328 72.16C476.16 241.456 480 248.208 480 256s-3.84 14.544-10.528 18.528z" fill="#ffffff" opacity="1" ></path></g></svg>