<svg xmlns="http://www.w3.org/2000/svg" version="1.1" xmlns:xlink="http://www.w3.org/1999/xlink"
    width="512" height="512" x="0" y="0" viewBox="0 0 64 64"
    style="enable-background:new 0 0 512 512" xml:space="preserve" class=""><g><path d="M50.045 24.396a.999.999 0 0 1-.707-1.707c1.055-1.056 1.636-2.48 1.636-4.014 0-1.532-.581-2.957-1.636-4.013-2.174-2.175-5.849-2.175-8.026 0a.999.999 0 1 1-1.414-1.414c2.942-2.94 7.913-2.94 10.854 0 1.433 1.433 2.223 3.36 2.222 5.428 0 2.066-.789 3.994-2.222 5.427a.997.997 0 0 1-.707.293zM12.001 53a1 1 0 0 1-.984-1.186l2.193-11.633a1 1 0 0 1 1.966.371l-2.193 11.633a1 1 0 0 1-.982.815z" fill="#ffffff" opacity="1"  class=""></path><path
    d="M11.999 53a1 1 0 0 1-.184-1.982l11.633-2.193a1 1 0 0 1 .37 1.965l-11.633 2.193a1.064 1.064 0 0 1-.186.017z"
    fill="#ffffff" opacity="1" class=""></path><path
    d="M23.633 50.807a.999.999 0 0 1-.707-1.707l26.412-26.411a.999.999 0 1 1 1.414 1.414L24.34 50.514a.997.997 0 0 1-.707.293zM14.193 41.367a.999.999 0 0 1-.707-1.707l26.412-26.412a.999.999 0 1 1 1.414 1.414L14.9 41.074a.993.993 0 0 1-.707.293z"
    fill="#ffffff" opacity="1" class=""></path><path
    d="M46.339 28.101a.997.997 0 0 1-.707-.293l-9.44-9.44a.999.999 0 1 1 1.414-1.414l9.44 9.44a.999.999 0 0 1-.707 1.707z"
    fill="#ffffff" opacity="1" class=""></path></g></svg>