<svg xmlns="http://www.w3.org/2000/svg" version="1.1" xmlns:xlink="http://www.w3.org/1999/xlink"
    width="512" height="512" x="0" y="0" viewBox="0 0 512 512"
    style="enable-background:new 0 0 512 512" xml:space="preserve" class=""><g><path d="M431.349 283.823a123.997 123.997 0 0 0-43.561-45.079l-10.394-6.321c2.473-24.864 1.325-47.127-3.485-67.852-12.211-52.617-40.227-94.307-55.839-114.475-10.887-14.064-22.242-26.223-32.838-35.164C273.327 4.884 263.765 0 256.001 0s-17.326 4.884-29.232 14.931c-10.595 8.941-21.95 21.101-32.838 35.164-15.613 20.168-43.628 61.858-55.839 114.475-4.81 20.725-5.958 42.988-3.485 67.852l-10.395 6.322a123.99 123.99 0 0 0-43.561 45.079 123.984 123.984 0 0 0-15.878 60.643l.001 112.073c0 9.132 5.452 17.29 13.888 20.785a22.439 22.439 0 0 0 24.517-4.877l67.491-67.491h170.66l67.491 67.491a22.435 22.435 0 0 0 24.517 4.876 22.43 22.43 0 0 0 13.888-20.784l.002-112.073c0-21.197-5.491-42.167-15.879-60.643zM160.008 169.656c7.375-31.778 21.148-59.362 33.665-79.663h62.334c6.212 0 11.249-5.036 11.249-11.249s-5.036-11.249-11.249-11.249h-47.048a321.3 321.3 0 0 1 1.365-1.809c9.703-12.744 19.807-23.835 29.22-32.072 9.225-8.073 14.738-10.647 16.456-11.076 1.718.429 7.231 3.003 16.456 11.076 9.413 8.238 19.518 19.328 29.22 32.072 14.069 18.479 39.313 56.557 50.317 103.969 4.665 20.101 5.405 42.099 2.261 67.251L336.06 382.457H175.94l-18.194-145.551c-3.143-25.15-2.404-47.148 2.262-67.25zM87.271 456.538l-.001-112.073c0-35.11 18.634-68.255 48.632-86.499l1.677-1.02 16.587 132.697zm337.457 0-66.893-66.893 16.587-132.698 1.675 1.019c29.998 18.244 48.633 51.389 48.632 86.499z" fill="#ffffff" opacity="1"  class=""></path><path
    d="M256.001 269.97c15.023 0 29.147-5.85 39.77-16.473s16.474-24.747 16.474-39.771c0-15.023-5.851-29.147-16.474-39.771s-24.747-16.473-39.77-16.473-29.147 5.85-39.771 16.473-16.473 24.747-16.473 39.771c0 15.023 5.85 29.147 16.473 39.771 10.623 10.623 24.747 16.473 39.771 16.473zm0-89.99c18.608 0 33.746 15.139 33.746 33.746s-15.139 33.746-33.746 33.746c-18.608 0-33.746-15.139-33.746-33.746s15.138-33.746 33.746-33.746zM306.028 428.401c-5.556-2.778-12.313-.526-15.092 5.031l-24.927 49.853c-1.945 3.889-5.701 6.214-10.049 6.218h-.013c-4.342 0-8.099-2.316-10.049-6.197l-25.321-50.374c-2.79-5.551-9.552-7.789-15.102-4.999-5.551 2.79-7.789 9.552-4.999 15.102l25.321 50.374c5.765 11.47 17.315 18.59 30.15 18.59h.037c12.849-.014 24.401-7.162 30.148-18.654l24.927-49.853c2.777-5.556.525-12.313-5.031-15.091z"
    fill="#ffffff" opacity="1" class=""></path></g></svg>