<svg xmlns="http://www.w3.org/2000/svg" version="1.1" xmlns:xlink="http://www.w3.org/1999/xlink"
    width="512" height="512" x="0" y="0" viewBox="0 0 512 512"
    style="enable-background:new 0 0 512 512" xml:space="preserve" class=""><g><path d="M376.5 0h-241c-30.419 0-55.166 24.748-55.166 55.167v421.091c0 26.382 14.584 35.742 27.072 35.742 9.001 0 18.063-4.499 26.935-13.371l121.657-121.658 121.659 121.658c8.871 8.871 17.934 13.37 26.935 13.371h.003c8.928 0 16.807-4.578 21.616-12.561 3.62-6.007 5.455-13.807 5.455-23.182V55.167C431.666 24.748 406.919 0 376.5 0zm25.166 476.258c0 1.396-.067 2.565-.169 3.538a33.607 33.607 0 0 1-2.627-2.38L266.604 345.151a15 15 0 0 0-21.212 0L113.127 477.416a33.86 33.86 0 0 1-2.618 2.381 33.405 33.405 0 0 1-.175-3.539V55.167C110.334 41.29 121.623 30 135.5 30h241c13.877 0 25.166 11.29 25.166 25.167z" fill="#ffffff" opacity="1"  class=""></path></g></svg>