<?xml version="1.0" encoding="UTF-8"?>
<svg class="" width="512" height="512" enable-background="new 0 0 512 512" version="1.1"
    viewBox="0 0 100 100" xml:space="preserve" xmlns="http://www.w3.org/2000/svg"><g fill="#fff"><path class="" d="M47.35 71.478a3 3 0 1 0 6 0V17.053l14.643 14.643a3 3 0 1 0 4.243-4.243L52.511 7.728a2.99 2.99 0 0 0-2.16-.88c-.045 0-.089.002-.132.004a2.992 2.992 0 0 0-2.236.876L28.258 27.453a3 3 0 0 0 4.242 4.243l14.85-14.85z" /><path
    class=""
    d="M13.868 57.166a3 3 0 0 0-6 0v22.985c0 7.18 5.82 13 13 13h58.263c7.18 0 13-5.82 13-13V57.167a3 3 0 0 0-6 0V80.15a7 7 0 0 1-7 7H20.868a7 7 0 0 1-7-7z" /></g></svg>
