<svg xmlns="http://www.w3.org/2000/svg" version="1.1" xmlns:xlink="http://www.w3.org/1999/xlink"
    width="512" height="512" x="0" y="0" viewBox="0 0 120 120"
    style="enable-background:new 0 0 512 512" xml:space="preserve" class=""><g><path fill="#ffffff" fill-rule="evenodd" d="m53.282 86.03 50.168-38.305a5.006 5.006 0 0 0 1.892-3.118l4.99-28.727c.592-3.409-2.373-6.374-5.782-5.782l-28.727 4.99a5 5 0 0 0-3.118 1.892L34.4 67.148l-1.165-1.165a5 5 0 0 0-7.071 0l-7.778 7.778a5 5 0 0 0 0 7.071l2.828 2.828-9.193 9.193a5 5 0 0 0 0 7.071l8.486 8.485a5 5 0 0 0 7.07 0l9.193-9.192 2.829 2.828a5 5 0 0 0 7.071 0l7.778-7.778a5 5 0 0 0 0-7.071zm-5.708-5.707L97.661 42.08l4.06-23.37-23.37 4.06-38.244 50.086zM31.113 93.56l-4.243-4.243-7.071 7.072 4.242 4.242zm15.556-2.829-3.536 3.536-16.97-16.97 3.535-3.536z" clip-rule="evenodd" opacity="1"  class=""></path></g></svg>